# xmcd
#
# Track frame offsets:
#	150
#	19285
#	39893
#	62838
#	76275
#	96668
#	111078
#	130250
#	152198
#	166410
#
# Disc length: 2449 seconds
#
# Revision: 0
# Processed by: cddbd v1.5.1PL2 Copyright (c) Steve Scherf et al.
# Submitted via: audiograbber 1.83.01
#
DISCID=80098f0a
DTITLE=ливакгс яайимтфгс - ма еисаи ейеи
DYEAR=1900
DGENRE=екк поп
TTITLE0=пеяаслема неваслема
TTITLE1=исоус вяистос
TTITLE2=ха сумгхисы
TTITLE3=то стяилемо
TTITLE4=ецы йаи о поуж
TTITLE5=дийо соу циа памта
TTITLE6=ма еисаи ейеи
TTITLE7=лгм ле ейдийеисаи
TTITLE8=ти тяабаы циа сема
TTITLE9=купалаи
EXTD=
EXTT0=
EXTT1=
EXTT2=
EXTT3=
EXTT4=
EXTT5=
EXTT6=
EXTT7=
EXTT8=
EXTT9=
PLAYORDER=
